<svg width="56" height="74.82" xmlns="http://www.w3.org/2000/svg">
  <path id="svg_1" fill-rule="evenodd" d="m-15.8958,43.9c5.49,-3.55 5.47,-7.5 0,-10.64l-42.93,-31.4c-4.45,-2.8 -9.12,-1.15 -9,4.69l0.18,61.68c0.38,6.34 4,8.07 9.33,5.14l42.42,-29.47zm53.91,-43.9l13.1,0a4,4 0 0 1 3.94,3.94l0,66.94a4,4 0 0 1 -3.94,3.94l-13.1,0a4,4 0 0 1 -3.94,-3.94l0,-66.94a4,4 0 0 1 3.94,-3.94zm-33.9,0l13.06,0a4,4 0 0 1 4,3.94l0,66.94a4,4 0 0 1 -4,3.94l-13.06,0a4,4 0 0 1 -3.94,-3.94l0,-66.94a4,4 0 0 1 3.94,-3.94z" class="cls-1"/>
</svg>