<svg width="56" height="74.82" xmlns="http://www.w3.org/2000/svg">
  <path stroke="null" id="svg_1" fill-rule="evenodd" d="m51.58641,43.9c5.45368,-3.55 5.43381,-7.5 0,-10.64l-42.64597,-31.4c-4.42056,-2.8 -9.05966,-1.15 -8.94045,4.69l0.17881,61.68c0.37749,6.34 3.97354,8.07 9.26827,5.14l42.13934,-29.47zm53.55332,-43.9l13.01333,0a3.97354,4 0 0 1 3.91393,3.94l0,66.94a3.97354,4 0 0 1 -3.91393,3.94l-13.01333,0a3.97354,4 0 0 1 -3.91393,-3.94l0,-66.94a3.97354,4 0 0 1 3.91393,-3.94zm-33.67571,0l12.97359,0a3.97354,4 0 0 1 3.97354,3.94l0,66.94a3.97354,4 0 0 1 -3.97354,3.94l-12.97359,0a3.97354,4 0 0 1 -3.91393,-3.94l0,-66.94a3.97354,4 0 0 1 3.91393,-3.94z" class="cls-1"/>
</svg>